<svg width="384" height="768" viewBox="0 0 384 768" fill="none" xmlns="http://www.w3.org/2000/svg">
<rect x="3" y="3" width="378" height="762" rx="38" fill="#00489D" stroke="#011D3E" stroke-width="6"/>
<rect x="10" y="19" width="362" height="730" rx="38" fill="#CFEAFF" stroke="#003157" stroke-width="6"/>
<rect x="13" y="377" width="356" height="14" fill="#E01515"/>
<rect x="13" y="496" width="356" height="14" fill="#00489D"/>
<rect x="13" y="258" width="356" height="14" fill="#00489D"/>
<path d="M190 685C223.689 685 251 712.311 251 746H236C236 720.595 215.405 700 190 700C164.595 700 144 720.595 144 746H129C129 712.311 156.311 685 190 685Z" fill="#E01515"/>
<path d="M190 83C223.689 83 251 55.6894 251 22H236C236 47.4051 215.405 68 190 68C164.595 68 144 47.4051 144 22H129C129 55.6894 156.311 83 190 83Z" fill="#E01515"/>
<path d="M190 295C239.153 295 279 334.847 279 384C279 433.153 239.153 473 190 473C140.847 473 101 433.153 101 384C101 334.847 140.847 295 190 295ZM190 314C151.34 314 120 345.34 120 384C120 422.66 151.34 454 190 454C228.66 454 260 422.66 260 384C260 345.34 228.66 314 190 314Z" fill="#E01515"/>
</svg>
