<svg width="307" height="77" viewBox="0 0 307 77" fill="none" xmlns="http://www.w3.org/2000/svg">
<g filter="url(#filter0_d_49_74)">
<rect x="29.5" y="5.5" width="271" height="59" rx="17.5" fill="#00489D" stroke="#00489D" stroke-width="5"/>
<rect x="36" y="8" width="263" height="54" rx="20" fill="#AADAFF"/>
<path d="M98.3763 43.5699C98.3763 43.8566 98.233 44 97.9462 44H94.9355C94.6487 44 94.5054 43.8566 94.5054 43.5699V29.3226C94.5054 29.0358 94.6487 28.8925 94.9355 28.8925H100.753C101.842 28.8925 102.796 29.1111 103.613 29.5484C104.437 29.9857 105.072 30.5914 105.516 31.3656C105.968 32.1326 106.194 33 106.194 33.9677C106.194 35.0143 105.978 35.9355 105.548 36.7312C105.118 37.5269 104.495 38.147 103.677 38.5914C102.867 39.0287 101.907 39.2473 100.796 39.2473H98.3763V43.5699ZM100.484 35.7527C100.828 35.7527 101.14 35.6774 101.419 35.5269C101.699 35.3763 101.918 35.1685 102.075 34.9032C102.24 34.6308 102.323 34.3297 102.323 34C102.323 33.6846 102.24 33.405 102.075 33.1613C101.918 32.9176 101.699 32.7276 101.419 32.5914C101.147 32.4552 100.839 32.3871 100.495 32.3871H98.3763V35.7527H100.484ZM118.326 43.5699C118.326 43.8566 118.182 44 117.896 44H108.627C108.34 44 108.197 43.8566 108.197 43.5699V29.3226C108.197 29.0358 108.34 28.8925 108.627 28.8925H111.638C111.924 28.8925 112.068 29.0358 112.068 29.3226V40.3011H117.896C118.182 40.3011 118.326 40.4444 118.326 40.7312V43.5699ZM133.814 43.5054C133.836 43.5699 133.847 43.6308 133.847 43.6882C133.847 43.7885 133.814 43.8674 133.75 43.9247C133.685 43.9749 133.596 44 133.481 44H130.384C130.141 44 129.979 43.8817 129.9 43.6452L129.212 41.6344H123.793L123.105 43.6452C123.033 43.8817 122.872 44 122.621 44H119.535C119.42 44 119.327 43.9749 119.255 43.9247C119.191 43.8674 119.158 43.7885 119.158 43.6882C119.158 43.6308 119.169 43.5699 119.191 43.5054L124.696 29.2151C124.782 28.9857 124.947 28.871 125.191 28.871H127.847C128.09 28.871 128.255 28.9857 128.341 29.2151L133.814 43.5054ZM128.126 38.4086L126.685 34.172L126.492 33.4839L126.331 34.172L124.89 38.4086H128.126ZM141.089 43.5699C141.089 43.8566 140.946 44 140.659 44H137.648C137.361 44 137.218 43.8566 137.218 43.5699V38.2366L132.25 29.4086C132.207 29.3226 132.186 29.2437 132.186 29.172C132.186 29.086 132.218 29.0179 132.283 28.9677C132.347 28.9176 132.437 28.8925 132.551 28.8925H136.078C136.315 28.8925 136.483 29 136.584 29.2151L139.186 34.6237L141.702 29.2151C141.795 29 141.964 28.8925 142.207 28.8925H145.756C145.87 28.8925 145.96 28.9176 146.025 28.9677C146.089 29.0179 146.121 29.086 146.121 29.172C146.121 29.2437 146.1 29.3226 146.057 29.4086L141.089 38.2151V43.5699ZM160.652 43.6559C160.566 43.8853 160.401 44 160.157 44H157.587C157.343 44 157.179 43.8853 157.093 43.6559L151.652 29.3871C151.63 29.3226 151.619 29.2616 151.619 29.2043C151.619 29.1039 151.652 29.0287 151.716 28.9785C151.781 28.9211 151.87 28.8925 151.985 28.8925H155.254C155.49 28.8925 155.652 29.0072 155.738 29.2366L158.931 38.5484L161.867 29.2473C161.938 29.0108 162.1 28.8925 162.351 28.8925H165.555C165.677 28.8925 165.77 28.9211 165.834 28.9785C165.906 29.0358 165.942 29.1147 165.942 29.2151C165.942 29.2652 165.931 29.3226 165.91 29.3871L164.275 34.3118L165.662 38.5376L168.802 29.2473C168.881 29.0108 169.042 28.8925 169.286 28.8925H172.544C172.659 28.8925 172.748 28.9211 172.813 28.9785C172.885 29.0287 172.92 29.1039 172.92 29.2043C172.92 29.2616 172.91 29.3226 172.888 29.3871L167.394 43.6559C167.308 43.8853 167.143 44 166.899 44H164.372C164.128 44 163.963 43.8853 163.877 43.6559L162.286 39.3333L160.652 43.6559ZM178.572 43.5699C178.572 43.8566 178.428 44 178.142 44H175.131C174.844 44 174.701 43.8566 174.701 43.5699V29.3226C174.701 29.0358 174.844 28.8925 175.131 28.8925H178.142C178.428 28.8925 178.572 29.0358 178.572 29.3226V43.5699ZM188.371 43.5699C188.371 43.8566 188.228 44 187.941 44H184.931C184.644 44 184.5 43.8566 184.5 43.5699V32.4946H180.877C180.59 32.4946 180.447 32.3513 180.447 32.0645V29.3226C180.447 29.0358 180.59 28.8925 180.877 28.8925H192.006C192.293 28.8925 192.436 29.0358 192.436 29.3226V32.0645C192.436 32.3513 192.293 32.4946 192.006 32.4946H188.371V43.5699ZM198.181 43.5699C198.181 43.8566 198.038 44 197.751 44H194.74C194.453 44 194.31 43.8566 194.31 43.5699V29.3226C194.31 29.0358 194.453 28.8925 194.74 28.8925H197.751C198.038 28.8925 198.181 29.0358 198.181 29.3226V34.2473H203.697V29.3226C203.697 29.0358 203.841 28.8925 204.127 28.8925H207.138C207.425 28.8925 207.568 29.0358 207.568 29.3226V43.5699C207.568 43.8566 207.425 44 207.138 44H204.127C203.841 44 203.697 43.8566 203.697 43.5699V37.9462H198.181V43.5699ZM229.381 43.5054C229.402 43.5699 229.413 43.6308 229.413 43.6882C229.413 43.7885 229.381 43.8674 229.316 43.9247C229.252 43.9749 229.162 44 229.047 44H225.951C225.707 44 225.546 43.8817 225.467 43.6452L224.779 41.6344H219.359L218.671 43.6452C218.599 43.8817 218.438 44 218.187 44H215.101C214.987 44 214.893 43.9749 214.822 43.9247C214.757 43.8674 214.725 43.7885 214.725 43.6882C214.725 43.6308 214.736 43.5699 214.757 43.5054L220.263 29.2151C220.349 28.9857 220.513 28.871 220.757 28.871H223.413C223.657 28.871 223.822 28.9857 223.908 29.2151L229.381 43.5054ZM223.693 38.4086L222.252 34.172L222.058 33.4839L221.897 34.172L220.456 38.4086H223.693ZM235.076 43.5699C235.076 43.8566 234.932 44 234.645 44H231.635C231.348 44 231.205 43.8566 231.205 43.5699V29.3226C231.205 29.0358 231.348 28.8925 231.635 28.8925H234.645C234.932 28.8925 235.076 29.0358 235.076 29.3226V43.5699Z" fill="#00305D"/>
<g filter="url(#filter1_d_49_74)">
<circle cx="36.5" cy="34.5" r="32.5" fill="#00489D"/>
<circle cx="37" cy="35" r="25" fill="#AADAFF"/>
<path d="M48 37.5C49.3807 37.5 50.5 36.3807 50.5 35C50.5 33.6193 49.3807 32.5 48 32.5L48 37.5ZM24.2322 33.2322C23.2559 34.2085 23.2559 35.7915 24.2322 36.7678L40.1421 52.6777C41.1184 53.654 42.7014 53.654 43.6777 52.6777C44.654 51.7014 44.654 50.1184 43.6777 49.1421L29.5355 35L43.6777 20.8579C44.654 19.8816 44.654 18.2986 43.6777 17.3223C42.7014 16.346 41.1184 16.346 40.1421 17.3223L24.2322 33.2322ZM48 35L48 32.5L26 32.5L26 35L26 37.5L48 37.5L48 35Z" fill="#00489D"/>
</g>
</g>
<defs>
<filter id="filter0_d_49_74" x="0" y="2" width="307" height="75" filterUnits="userSpaceOnUse" color-interpolation-filters="sRGB">
<feFlood flood-opacity="0" result="BackgroundImageFix"/>
<feColorMatrix in="SourceAlpha" type="matrix" values="0 0 0 0 0 0 0 0 0 0 0 0 0 0 0 0 0 0 127 0" result="hardAlpha"/>
<feOffset dy="6"/>
<feGaussianBlur stdDeviation="2"/>
<feComposite in2="hardAlpha" operator="out"/>
<feColorMatrix type="matrix" values="0 0 0 0 0 0 0 0 0 0.282353 0 0 0 0 0.615686 0 0 0 0.3 0"/>
<feBlend mode="normal" in2="BackgroundImageFix" result="effect1_dropShadow_49_74"/>
<feBlend mode="normal" in="SourceGraphic" in2="effect1_dropShadow_49_74" result="shape"/>
</filter>
<filter id="filter1_d_49_74" x="2" y="0" width="73" height="73" filterUnits="userSpaceOnUse" color-interpolation-filters="sRGB">
<feFlood flood-opacity="0" result="BackgroundImageFix"/>
<feColorMatrix in="SourceAlpha" type="matrix" values="0 0 0 0 0 0 0 0 0 0 0 0 0 0 0 0 0 0 127 0" result="hardAlpha"/>
<feOffset dx="2" dy="2"/>
<feGaussianBlur stdDeviation="2"/>
<feComposite in2="hardAlpha" operator="out"/>
<feColorMatrix type="matrix" values="0 0 0 0 0 0 0 0 0 0 0 0 0 0 0 0 0 0 0.38 0"/>
<feBlend mode="normal" in2="BackgroundImageFix" result="effect1_dropShadow_49_74"/>
<feBlend mode="normal" in="SourceGraphic" in2="effect1_dropShadow_49_74" result="shape"/>
</filter>
</defs>
</svg>
